<?xml version="1.0" encoding="UTF-8"?>
<svg id="Layer_2" data-name="Layer 2" xmlns="http://www.w3.org/2000/svg" viewBox="0 0 5723.18 5723.18">
  <defs>
    <style>
      .cls-1 {
        fill: #bbbdbf;
        fill-rule: evenodd;
      }
    </style>
  </defs>
  <g id="Layer_1-2" data-name="Layer 1">
    <path class="cls-1" d="M2861.58,0c790.09,0,1505.57,320.27,2023.44,838.15,517.88,517.87,838.16,1233.02,838.16,2023.44s-320.27,1505.57-838.16,2023.44c-517.87,517.88-1233.35,838.15-2023.44,838.15s-1505.57-320.27-2023.44-838.15C320.26,4367.16,0,3651.68,0,2861.59S320.26,1356.02,838.14,838.15C1356.01,320.27,2071.16,0,2861.58,0h0ZM722.2,4517.38c266.16-627.43,889.23-1070.7,1611.09-1070.7h1056.58c721.54,0,1344.59,443.27,1611.1,1070.7,354.54-457.72,565.6-1032.05,565.6-1655.79,0-747.07-302.79-1423.23-792.1-1912.88-489.64-489.65-1165.81-792.44-1912.88-792.44S1438.35,459.06,948.7,948.71c-489.65,489.64-792.44,1165.81-792.44,1912.88,0,623.74,211.39,1198.07,565.93,1655.79h0ZM2847.13,758.5h28.9c1351.99,0,1351.99,2426.72,0,2426.72h-28.9c-1351.98,0-1351.98-2426.72,0-2426.72h0Z"/>
  </g>
</svg>