<?xml version="1.0" encoding="UTF-8"?>
<svg id="Layer_2" data-name="Layer 2" xmlns="http://www.w3.org/2000/svg" viewBox="0 0 1513.88 281.43">
  <defs>
    <style>
      .cls-1 {
        font-family: Roboto-Bold, Roboto;
        font-size: 181.54px;
        font-weight: 700;
        letter-spacing: .12em;
      }

      .cls-2 {
        fill: #333;
      }

      .cls-3 {
        fill: #f9951c;
      }
    </style>
  </defs>
  <g id="Layer_1-2" data-name="Layer 1">
    <text class="cls-1" transform="translate(316.59 231.94)"><tspan class="cls-2" x="0" y="0">UCEN</tspan><tspan class="cls-3" x="558.62" y="0">PULSE</tspan></text>
    <g>
      <path class="cls-3" d="M206.47,120.39c-3.15,0-6.63,3.56-9.56,9.77-2.98,6.31-5.12,14.8-6.12,24.24h15.83c2.22,0,4.02,1.8,4.02,4.02v19.94c0,2.22-1.8,4.02-4.02,4.02h-15.5c1.16,8.74,3.31,16.52,6.18,22.26,2.84,5.7,6.19,8.98,9.18,8.98,6.83,0,16.35-17.73,16.35-46.62s-9.52-46.62-16.35-46.62Z"/>
      <path class="cls-3" d="M261.63,129.88h-9.75c3.99,10.01,6.18,23.18,6.18,37.13s-2.19,27.12-6.18,37.12h9.75c5.11,0,12.53-14.46,12.53-37.12s-7.42-37.13-12.53-37.13Z"/>
      <g>
        <path class="cls-2" d="M12.53,129.88c-5.11,0-12.53,14.46-12.53,37.13s7.42,37.12,12.53,37.12h9.75c-3.99-10.01-6.18-23.18-6.18-37.12s2.2-27.12,6.18-37.13h-9.75Z"/>
        <path class="cls-2" d="M67.7,213.62c2.99,0,6.34-3.27,9.18-8.98,2.86-5.74,5.01-13.53,6.17-22.26h-15.5c-2.22,0-4.02-1.8-4.02-4.02v-19.94c0-2.22,1.8-4.02,4.02-4.02h15.83c-1.01-9.44-3.14-17.93-6.12-24.24-2.93-6.21-6.42-9.77-9.57-9.77-6.83,0-16.35,17.73-16.35,46.62s9.52,46.62,16.35,46.62Z"/>
        <rect class="cls-2" x="67.37" y="158.11" width="139.43" height="20.77"/>
        <path class="cls-2" d="M209.87,231.65c-17.67,20.35-43.73,33.21-72.79,33.21-50.61,0-92.1-39.01-96.06-88.59-.2-3.07-.3-6.18-.3-9.27h0c.03-1.87.11-3.73.25-5.57,1.02-11.94,5.09-23.05,8.59-31.74,1.47-3.65,3.15-6.76,4.99-9.3h-14.05c-6.83,0-16.35,17.73-16.35,46.62,0,.38,0,.77,0,1.15,0,.12,0,.23,0,.34,0,62.37,50.56,112.93,112.93,112.93,38.98,0,73.34-19.74,93.64-49.78h-20.85Z"/>
      </g>
      <path class="cls-3" d="M250.02,167c0-15.38-2.7-27.6-6.26-35.67-8.97-25.74-26.98-47.24-50.24-60.68.39-.89.77-1.8,1.14-2.72,8.84-21.59,10.1-38.6,3.73-50.55-2.95-5.54-7.44-9.84-13.34-12.78C179.49,1.83,172.6.3,164.56.03v-.03h-53.94c-8.47.17-15.71,1.72-21.51,4.61-5.9,2.94-10.39,7.24-13.34,12.78-6.36,11.95-5.11,28.96,3.73,50.55.38.92.76,1.82,1.14,2.72-14.88,8.6-27.61,20.49-37.2,34.68h20.84c17.67-20.35,43.73-33.21,72.79-33.21,52.72,0,95.56,42.34,96.36,94.87h0c0,14.03-4.8,27.28-8.83,37.31-1.47,3.65-3.14,6.77-4.99,9.31h14.05c5.85,0,13.67-13.01,15.79-34.88h.1c.3-3.37.46-6.79.46-10.24,0-.19,0-.38,0-.56,0-.31,0-.62,0-.93ZM178.13,60.89c-.28.69-.56,1.36-.85,2.04-12.49-4.76-26.04-7.36-40.19-7.36s-27.71,2.61-40.19,7.36c-.25-.59-.51-1.19-.75-1.8-6.53-15.95-8.13-28.48-4.5-35.29,2.66-5,9.14-7.65,19.26-7.86h52.38c10.11.21,16.59,2.86,19.25,7.86,3.61,6.77,2.05,19.22-4.4,35.06Z"/>
    </g>
  </g>
</svg>